<?xml version="1.0" encoding="UTF-8"?>
<!DOCTYPE svg PUBLIC "-//W3C//DTD SVG 1.1//EN" "http://www.w3.org/Graphics/SVG/1.1/DTD/svg11.dtd">
<!-- Creator: CorelDRAW -->
<svg xmlns="http://www.w3.org/2000/svg" xml:space="preserve" width="2480px" height="1122px" version="1.1" style="shape-rendering:geometricPrecision; text-rendering:geometricPrecision; image-rendering:optimizeQuality; fill-rule:evenodd; clip-rule:evenodd" viewBox="0 0 2480 1121.9" xmlns:xlink="http://www.w3.org/1999/xlink" xmlns:xodm="http://www.corel.com/coreldraw/odm/2003"><link xmlns="" type="text/css" rel="stylesheet" id="dark-mode-custom-link"/><link xmlns="" type="text/css" rel="stylesheet" id="dark-mode-general-link"/><style xmlns="" lang="en" type="text/css" id="dark-mode-custom-style"/><style xmlns="" lang="en" type="text/css" id="dark-mode-native-style"/>
 <defs>
  <style type="text/css">
   <![CDATA[
    .fil0 {fill:#131412;fill-rule:nonzero}
    .fil1 {fill:#1D1D1B;fill-rule:nonzero}
    .fil3 {fill:#3C5E0F;fill-rule:nonzero}
    .fil4 {fill:#4D7400;fill-rule:nonzero}
    .fil2 {fill:#618D0A;fill-rule:nonzero}
    .fil6 {fill:#75A714;fill-rule:nonzero}
    .fil5 {fill:#9CC01C;fill-rule:nonzero}
   ]]>
  </style>
 </defs>
 <g id="Vrstva_x0020_1">
  <metadata id="CorelCorpID_0Corel-Layer"/>
  <g>
   <path class="fil0" d="M1193.37 635.49l-135.28 0c-13.99,0 -24.49,-11.66 -24.49,-24.49 0,-13.99 10.5,-24.49 24.49,-24.49l159.77 0 0 24.49c0,12.83 -10.49,24.49 -24.49,24.49l0 0zm159.77 -216.91c-3.49,-86.3 -73.47,-155.11 -159.77,-155.11l-234.41 0 0 136.45 234.41 0c14,0 24.49,11.66 24.49,24.49l0 24.49 -159.77 0c-88.63,0 -159.77,72.3 -159.77,160.94 0,88.63 72.3,160.93 159.77,160.93l135.28 0.01c88.63,0 159.77,-72.31 159.77,-160.94l0 -191.26 0 0z"/>
  </g>
  <rect class="fil0" x="22.48" y="270.47" width="135.28" height="494.48"/>
  <path class="fil0" d="M656.91 264.63c-46.65,0 -89.8,17.5 -123.62,45.49 -33.82,-27.99 -75.8,-45.49 -123.62,-45.49 -104.96,0 -191.26,86.31 -191.26,191.26l0 309.05 135.28 0.01 0 -309.05c0,-30.32 24.49,-55.98 55.98,-55.98 30.32,0 55.98,24.49 55.98,55.98l0 309.05 135.28 0 0 -309.05c0,-30.32 24.49,-55.98 55.98,-55.98 30.32,0 55.98,24.49 55.98,55.98l0 309.05 135.28 0 0 -309.05c0,-106.13 -85.13,-191.27 -191.26,-191.27z"/>
  <path class="fil0" d="M91.29 187.66c-51.31,0 -92.13,-41.98 -92.13,-93.29 0,-51.32 41.98,-93.3 92.13,-93.3 51.31,0 92.13,41.98 92.13,93.3 0,52.48 -41.98,93.29 -92.13,93.29z"/>
  <g>
   <path class="fil0" d="M1532.74 517.71c0,-65.31 52.48,-117.79 116.63,-117.79 64.14,0 116.62,52.48 116.62,117.79 0,65.3 -52.48,117.78 -116.62,117.78 -64.15,0 -116.63,-52.48 -116.63,-117.78l0 0zm283.39 278.72l-99.12 0 0 -33.82c107.29,-29.15 185.43,-128.28 185.43,-244.9 0,-52.48 -16.33,-101.46 -43.15,-141.12l65.3 -52.48 -85.13 -106.12 -86.3 69.97c-31.49,-14 -66.48,-22.16 -103.79,-22.16 -138.79,0 -253.08,114.29 -253.08,254.24 0,115.45 78.14,213.42 183.1,243.74l0 102.63c0,37.31 30.32,67.64 67.64,67.64l167.94 0c13.99,0 24.49,11.66 24.49,24.49 0,13.99 -10.5,24.49 -24.49,24.49l-235.58 0 0 136.45 235.58 0c88.63,0 159.77,-72.31 159.77,-160.94 2.33,-89.8 -69.97,-162.11 -158.61,-162.11z"/>
  </g>
  <path class="fil1" d="M2178.83 706.63c0,0 -1.17,-1.16 -1.17,-1.16 0,0 0,0 1.17,1.16z"/>
  <path class="fil1" d="M2178.83 706.63c0,0 -1.17,-1.16 -1.17,-1.16 0,0 0,0 1.17,1.16z"/>
  <g>
   <path class="fil2" d="M2315.28 580.68c-40.82,57.15 -121.29,71.14 -179.6,30.32 -58.31,-40.81 -71.14,-121.28 -30.32,-178.43 40.82,-57.14 121.29,-71.14 179.6,-30.32 57.14,40.82 71.14,121.29 30.32,178.43l0 0zm27.99 -253.07c-100.3,-71.14 -239.08,-47.81 -310.22,51.32 -71.14,99.12 -47.81,237.91 52.48,309.04 100.3,71.14 239.08,47.82 310.22,-51.31 71.14,-99.13 47.81,-237.91 -52.48,-309.05z"/>
  </g>
  <path class="fil3" d="M2372.42 445.4c-27.99,-7 -2.33,-36.15 -33.82,-53.65 -90.96,-51.31 -121.28,-80.47 -194.76,-18.66 -47.81,26.83 -88.63,99.13 -71.14,139.95 14,32.66 44.32,58.31 66.48,62.98 22.16,5.83 22.16,-1.17 18.66,-7 -17.49,-22.16 -27.99,-51.31 -24.49,-71.14 18.66,-89.8 102.63,-89.8 143.44,-60.64 40.82,29.15 50.15,86.3 20.99,127.12 -6.99,9.33 -37.32,41.98 -94.46,41.98 -5.83,0 -16.33,0 -12.83,10.5 2.33,6.99 10.5,13.99 23.33,18.66 61.81,22.15 -87.47,27.99 -109.63,16.32 46.65,40.82 165.6,46.65 225.08,-19.82 -23.32,-17.5 92.13,-40.82 43.15,-186.6z"/>
  <path class="fil4" d="M2402.75 572.52c-1.17,-1.17 -2.34,-2.33 -3.5,-3.5 26.82,-43.15 12.83,-69.97 -4.67,-115.46 -9.33,3.5 -17.49,-40.81 -27.99,-52.47 -54.81,-64.15 -151.61,-87.47 -219.25,-46.65 -37.32,23.32 -71.14,87.46 -81.63,103.79 -10.5,15.16 2.33,46.65 19.82,74.64 -27.99,-108.46 108.46,-201.76 200.59,-131.79 104.96,72.31 43.15,228.58 -69.97,232.08 -13.99,14 -30.32,5.83 -41.98,7 5.83,4.66 -2.33,4.66 -12.83,1.16 5.83,7 15.16,5.84 9.33,8.17 -8.17,2.33 -25.66,-10.5 -30.32,-5.83 -1.17,1.16 2.33,2.33 1.16,4.66 -1.16,7 -18.66,0 -29.15,-5.83 0,0 8.16,8.16 2.33,5.83 -5.83,-2.33 -7,-2.33 -11.66,-4.66 59.47,89.8 212.25,57.14 271.73,-17.5 -18.66,-1.16 29.15,-38.48 27.99,-53.64z"/>
  <path class="fil5" d="M2364.26 599.34c1.17,1.17 4.66,-1.17 2.33,4.67 -1.16,2.33 -2.33,3.5 -3.5,5.83 -1.16,2.33 -2.33,3.5 -3.5,4.66 -1.16,1.17 -2.33,3.5 -4.66,4.67 -1.17,1.16 -3.5,2.33 -4.66,4.66 -1.17,1.17 -3.5,2.33 -4.67,3.5 -1.17,1.17 -3.5,2.33 -4.67,4.67 -3.49,2.33 -5.83,5.83 -9.32,9.33 0,1.16 1.16,2.33 1.16,3.49 -11.66,8.17 -24.49,15.17 -38.48,21 -11.66,5.83 -24.49,11.66 -37.32,15.16 -12.83,3.5 -26.83,5.83 -40.82,5.83 1.17,1.17 1.17,2.33 -1.17,2.33 -11.66,1.17 -27.99,-1.17 -43.15,-5.83 -2.33,0 -4.66,-1.17 -6.99,-1.17 -2.34,0 -2.34,1.17 -3.5,1.17 -7,-2.33 -12.83,-4.67 -18.66,-8.16 -18.66,-7 -37.32,-16.33 -54.81,-30.33 -8.17,-6.99 -16.33,-13.99 -23.33,-22.15 -7,-8.17 -13.99,-16.33 -19.82,-26.83 -11.67,-18.66 -19.83,-39.65 -24.5,-62.97 -4.66,-23.33 -4.66,-47.82 -1.16,-72.31 0,-5.83 1.16,-10.5 2.33,-16.32 1.16,-4.67 2.33,-10.5 3.5,-15.17 3.49,-10.49 6.99,-19.82 11.66,-29.15 8.16,-14 18.66,-27.99 31.49,-39.65 12.82,-11.67 26.82,-22.16 40.81,-29.16 -2.33,-1.17 0,-5.83 3.5,-10.5 4.67,-4.66 11.66,-10.49 18.66,-15.16 14,-10.5 40.82,-39.65 74.64,-38.48 10.5,0 20.99,-5.84 24.49,-7 14,-3.5 36.15,-5.83 68.81,2.33 12.83,3.5 27.99,10.5 40.82,18.66 3.5,2.33 5.83,3.5 9.33,5.83 2.33,2.33 5.83,3.5 8.16,4.67 4.66,3.5 8.16,5.83 10.5,5.83 3.49,1.17 3.49,0 2.33,-1.17 -1.17,-2.33 -4.67,-4.66 -7,-8.16 -5.83,-5.83 -51.31,-32.65 -74.64,-39.65 -11.66,-3.5 -24.49,-5.83 -37.32,-7 -12.82,-1.16 -24.49,-2.33 -37.32,-2.33 -50.14,0 -99.12,15.16 -142.27,41.99 -10.5,6.99 -18.66,15.16 -27.99,23.32 -9.33,8.16 -19.83,15.16 -29.16,24.49 -8.16,9.33 -18.66,18.66 -25.66,29.16 -6.99,10.49 -10.49,22.16 -16.32,32.65 -22.16,45.48 -30.32,96.8 -24.49,146.95 1.16,8.16 3.49,23.32 9.33,41.98 5.83,18.66 12.82,43.15 29.15,64.14 7,5.83 15.16,23.33 25.66,34.99 9.33,11.66 20.99,22.16 33.82,32.65 24.49,19.83 54.81,37.32 87.47,47.82 32.65,10.49 67.64,13.99 101.46,11.66 33.82,-2.33 88.63,-15.16 93.29,-24.49 2.34,-4.67 26.83,-14 37.32,-20.99 11.66,-8.17 20.99,-16.33 30.32,-23.33 17.5,-16.32 30.33,-31.49 38.49,-43.15 2.33,-3.5 3.5,-5.83 5.83,-9.33 17.49,-26.82 31.49,-60.64 36.15,-94.46 5.84,-33.82 2.34,-66.48 -4.66,-92.13 -7,-23.33 -17.49,-45.49 -31.49,-66.48 1.17,5.83 5.83,16.33 7,29.16 -8.17,-22.16 -29.16,-57.15 -43.15,-67.64 -3.5,-2.33 9.33,24.49 -8.17,19.82 0,3.5 0,3.5 -1.16,9.33 -1.17,3.5 -5.83,-8.16 -14,-12.82 -4.66,-2.34 3.5,3.49 9.33,16.32 5.83,9.33 -25.65,-18.66 -31.48,-20.99 -2.34,-1.17 -7,-3.5 2.33,11.66 8.16,15.16 -38.49,-17.49 -40.82,-19.82 0,0 24.49,18.66 43.15,43.14 19.83,29.16 30.32,62.98 30.32,97.97 -2.33,33.82 -11.66,67.64 -29.15,96.79z"/>
  <path class="fil6" d="M2395.75 636.66c57.14,-79.3 53.64,-184.26 -1.17,-258.9 0,0 1.17,7 -5.83,1.17 -9.33,-7 -25.66,-18.66 -18.66,-10.5 8.16,8.16 10.5,10.5 15.16,17.49 5.83,9.33 -12.83,-8.16 -24.49,-16.32 -20.99,-15.17 -39.65,-5.84 -43.15,-8.17 0,0 24.49,18.66 43.15,43.15 19.83,29.16 30.32,62.98 30.32,97.96 1.17,34.99 -9.33,68.81 -26.82,97.97 1.17,1.16 4.66,-1.17 2.33,4.66 -1.17,2.33 -2.33,3.5 -3.5,5.83 -1.17,2.33 -2.33,3.5 -3.5,4.67 -1.16,1.17 -2.33,3.5 -4.66,4.66 -1.17,1.17 -3.5,2.34 -4.67,4.67 -1.16,1.16 -3.5,2.33 -4.66,3.5 -1.17,1.16 -3.5,2.33 -4.67,4.66 -3.49,2.33 -5.83,5.83 -9.33,9.33 0,1.17 1.17,2.33 1.17,3.5 -11.66,8.16 -24.49,15.16 -38.48,20.99 -11.67,5.83 -24.5,11.66 -37.32,15.16 -12.83,3.5 -26.83,5.83 -40.82,5.83 1.16,1.17 1.16,2.34 -1.17,2.34 -11.66,1.16 -27.99,-1.17 -43.15,-5.84 -2.33,0 -4.66,-1.16 -6.99,-1.16 -2.34,0 -2.34,1.16 -3.5,1.16 -7,-2.33 -12.83,-4.66 -18.66,-8.16 -18.66,-7 -37.32,-16.33 -54.82,-30.32 -8.16,-7 -16.32,-14 -23.32,-22.16 -7,-8.16 -14,-16.32 -19.83,-26.82 -11.66,-18.66 -19.82,-39.65 -24.49,-62.98 -4.66,-23.32 -4.66,-47.81 -1.16,-72.3 0,-5.84 1.16,-10.5 2.33,-16.33 1.16,-4.67 2.33,-10.5 3.49,-15.16 3.5,-10.5 7,-19.83 11.67,-29.16 8.16,-13.99 18.66,-27.99 31.48,-39.65 12.83,-11.66 26.83,-22.16 40.82,-29.16 -2.33,-1.16 0,-5.83 3.5,-10.49 4.67,-4.67 11.66,-10.5 18.66,-15.16 1.17,-1.17 3.5,-2.34 5.83,-4.67 -39.65,15.16 -75.8,41.99 -102.62,79.3 -71.14,99.13 -47.82,237.91 52.47,309.05 97.97,69.98 237.92,46.66 309.06,-53.64z"/>
 </g>
</svg>